# xmcd
#
# Track frame offsets: 
#        150
#        18655
#        35939
#        54264
#        70610
#        91194
#        106880
#        126931
#        153772
#        174199
#        195513
#        217429
#
# Disc length: 3129 seconds
#
# Revision: 1
# Processed by: cddbd v1.5.1PL2 Copyright (c) Steve Scherf et al.
# Submitted via: ExactAudioCopy v0.95b4
#
DISCID=9f0c370c
DTITLE=Ilse Delange - Livin' on Love
DYEAR=2001
DGENRE=Country
TTITLE0=Good Thing
TTITLE1=Naked Heart
TTITLE2=Naked Heart
TTITLE3=Breathin'
TTITLE4=I Still Cry
TTITLE5=Beyond Gravity
TTITLE6=Livin' on Love
TTITLE7=Peaceful in Mine
TTITLE8=When You Put It Like That
TTITLE9=Always Overcome
TTITLE10=Breathe in, Breathe Out
TTITLE11=Everywhere I Go
EXTD=
EXTT0=
EXTT1=
EXTT2=
EXTT3=
EXTT4=
EXTT5=
EXTT6=
EXTT7=
EXTT8=
EXTT9=
EXTT10=
EXTT11=
PLAYORDER=
